<?xml version="1.0" standalone="no"?>
<!DOCTYPE svg PUBLIC "-//W3C//DTD SVG 20010904//EN"
 "http://www.w3.org/TR/2001/REC-SVG-20010904/DTD/svg10.dtd">
<svg version="1.0" xmlns="http://www.w3.org/2000/svg"
 width="545.000000pt" height="545.000000pt" viewBox="0 0 545.000000 545.000000"
 preserveAspectRatio="xMidYMid meet">
<metadata>
Created by potrace 1.14, written by Peter Selinger 2001-2017
</metadata>
<g transform="translate(0.000000,545.000000) scale(0.100000,-0.100000)"
fill="#000000" stroke="none">
<path d="M3115 4970 c-4 -6 -11 -7 -17 -4 -6 4 -8 3 -5 -3 4 -5 -5 -16 -18
-23 -14 -7 -25 -18 -25 -23 0 -5 -10 -20 -22 -32 -41 -41 -108 -138 -108 -155
0 -6 -4 -8 -10 -5 -5 3 -10 0 -10 -7 0 -15 -88 -151 -100 -156 -5 -2 -6 -10
-3 -18 3 -8 0 -14 -6 -14 -6 0 -11 -4 -11 -10 0 -5 -22 -48 -50 -96 -27 -48
-50 -91 -50 -95 0 -5 -4 -9 -10 -9 -5 0 -10 -6 -10 -13 0 -7 -11 -29 -25 -50
-14 -20 -22 -37 -18 -37 4 0 3 -4 -2 -8 -6 -4 -23 -32 -39 -62 -16 -30 -34
-58 -39 -61 -5 -3 -9 -10 -9 -15 -1 -14 -20 -56 -45 -95 -12 -20 -19 -40 -16
-43 4 -3 2 -6 -4 -6 -6 0 -24 -27 -39 -60 -15 -33 -31 -60 -36 -60 -4 0 -8 -9
-8 -20 0 -11 -5 -20 -11 -20 -5 0 -8 -4 -4 -9 3 -5 -1 -15 -8 -23 -7 -7 -23
-34 -36 -60 -12 -27 -27 -48 -32 -48 -5 0 -8 -3 -7 -7 3 -14 -13 -53 -22 -53
-5 0 -7 -9 -5 -19 2 -11 -2 -22 -8 -24 -7 -3 -30 -40 -52 -83 -22 -44 -42 -81
-45 -84 -3 -3 -14 -22 -24 -42 -11 -21 -22 -38 -25 -38 -3 0 -22 31 -41 68
-19 37 -38 69 -42 70 -5 2 -8 11 -8 20 0 8 -6 23 -13 31 -25 30 -97 151 -90
151 4 0 -3 7 -15 16 -12 8 -20 19 -18 23 3 4 -5 19 -17 32 -12 13 -21 26 -20
30 1 3 -10 19 -25 36 -15 17 -28 36 -30 42 -1 7 -14 24 -27 37 -14 14 -25 31
-25 39 0 8 -4 15 -10 15 -5 0 -10 7 -10 15 0 8 -7 15 -15 15 -8 0 -15 5 -15
11 0 11 -131 183 -190 249 -17 19 -45 54 -63 77 -18 23 -38 43 -44 43 -7 0
-13 4 -13 8 0 4 -18 27 -40 51 -22 23 -40 46 -40 49 0 4 -14 16 -30 28 -17 11
-56 45 -88 75 -92 86 -126 115 -158 135 -16 10 -37 26 -46 34 -9 8 -38 26 -65
40 -26 14 -50 27 -53 30 -8 8 -75 44 -77 42 -3 -2 -29 6 -61 19 -53 21 -87 0
-37 -23 14 -6 25 -15 25 -20 0 -4 6 -8 13 -8 8 0 39 -18 71 -40 31 -22 61 -40
67 -40 6 0 7 -4 4 -10 -3 -5 -2 -10 4 -10 6 0 34 -22 63 -50 29 -27 56 -50 61
-50 4 0 7 -4 7 -10 0 -5 30 -37 66 -72 84 -80 241 -274 236 -291 -1 -5 1 -6 6
-3 5 3 15 -6 22 -19 7 -14 17 -25 22 -25 4 0 8 -7 8 -15 0 -7 8 -19 18 -24 9
-6 14 -11 10 -11 -7 0 17 -32 50 -66 6 -7 12 -17 12 -22 0 -5 7 -15 15 -22 9
-7 13 -15 11 -18 -3 -2 14 -30 37 -61 48 -62 78 -108 104 -161 10 -19 23 -40
28 -47 6 -7 16 -19 23 -28 7 -8 10 -15 6 -15 -4 0 0 -8 9 -18 10 -10 14 -22
10 -25 -3 -4 -2 -7 3 -7 5 0 18 -17 29 -37 11 -21 28 -47 37 -57 10 -10 15
-23 12 -27 -2 -4 0 -10 6 -14 5 -3 20 -27 34 -53 56 -110 71 -137 79 -140 4
-2 7 -8 7 -14 0 -5 12 -30 27 -56 16 -26 27 -53 25 -59 -2 -7 2 -13 8 -13 6 0
8 -4 5 -10 -3 -5 -2 -10 3 -10 9 0 25 -37 23 -52 -1 -5 4 -8 10 -8 6 0 8 -7 5
-16 -4 -10 -2 -13 6 -8 8 5 9 2 5 -9 -3 -10 -3 -17 1 -17 9 0 42 -59 46 -81 2
-12 33 -78 42 -88 2 -2 10 4 19 13 9 9 14 16 10 16 -3 0 5 11 19 23 14 13 23
27 19 31 -4 4 -3 10 2 14 6 4 21 27 34 52 13 25 30 53 38 62 8 9 12 21 9 26
-3 6 1 13 10 16 8 3 12 10 9 16 -3 5 -1 10 4 10 6 0 11 6 11 14 0 7 7 19 15
26 8 7 12 16 9 21 -3 5 0 9 5 9 6 0 11 6 11 14 0 7 7 19 15 26 8 7 12 16 9 21
-3 5 -1 9 4 9 9 0 25 37 23 53 -1 4 3 7 9 7 5 0 10 6 10 13 0 7 9 23 20 35 12
12 16 22 10 22 -8 0 -7 5 2 15 29 32 39 45 33 45 -3 0 6 18 20 40 14 22 23 40
20 40 -3 0 4 10 15 22 11 12 18 28 16 35 -3 7 -2 13 3 13 5 0 14 14 21 31 7
17 24 46 36 65 13 19 21 34 17 34 -3 0 2 9 12 20 10 11 15 20 11 20 -4 0 2 13
13 29 12 16 21 37 21 46 0 9 4 14 9 10 5 -3 12 -1 16 5 3 5 0 10 -7 10 -8 1
-5 7 7 16 11 8 20 18 20 22 2 20 18 52 26 52 6 0 7 5 4 10 -3 6 -1 10 5 10 7
0 10 7 6 15 -3 8 -2 15 3 15 4 0 18 23 31 50 13 28 27 50 32 50 4 0 8 7 8 15
0 8 5 15 11 15 5 0 7 5 4 10 -4 6 1 23 11 38 10 15 17 30 16 35 -1 4 2 7 8 7
5 0 10 4 10 9 0 5 16 37 34 70 19 34 32 61 29 61 -3 0 1 8 10 18 10 10 14 22
10 25 -3 4 1 7 10 7 10 0 14 5 11 15 -4 8 -1 15 5 15 6 0 11 7 11 16 0 21 27
47 35 34 3 -5 4 -14 0 -19 -3 -5 -2 -12 3 -15 9 -5 9 -47 -1 -63 -4 -7 -3 -14
3 -18 6 -4 7 -12 3 -18 -9 -15 -10 -75 -1 -89 3 -7 3 -19 -2 -28 -5 -9 -5 -22
0 -30 5 -8 5 -21 0 -30 -5 -9 -5 -22 0 -30 5 -8 5 -21 0 -30 -5 -9 -5 -22 0
-29 4 -8 4 -26 0 -42 -6 -19 -4 -29 3 -32 9 -3 9 -8 -1 -19 -9 -12 -10 -18 -2
-23 8 -5 8 -10 0 -20 -8 -10 -8 -15 0 -20 8 -5 8 -10 0 -20 -8 -9 -8 -15 0
-20 6 -3 7 -12 3 -18 -10 -17 -10 -80 1 -94 5 -8 5 -13 -1 -13 -11 0 -11 -29
0 -46 3 -6 3 -14 0 -18 -10 -10 -11 -46 -1 -46 5 0 6 -6 2 -12 -11 -18 -12
-48 -2 -48 5 0 6 -6 2 -12 -11 -18 -12 -48 -2 -48 5 0 6 -6 2 -12 -11 -18 -12
-48 -2 -48 5 0 6 -6 2 -12 -11 -18 -12 -48 -2 -48 5 0 6 -6 2 -12 -12 -19 -12
-48 -1 -48 5 0 5 -6 -2 -13 -8 -10 -7 -17 1 -25 7 -7 8 -12 2 -12 -12 0 -12
-29 0 -48 4 -6 4 -12 -1 -12 -4 0 -8 -20 -8 -45 0 -25 4 -45 8 -45 5 0 5 -6 1
-12 -11 -18 -12 -48 -2 -48 5 0 6 -6 2 -12 -12 -19 -12 -48 -1 -48 5 0 5 -6
-2 -13 -8 -10 -7 -17 1 -25 7 -7 8 -12 2 -12 -12 0 -12 -29 0 -48 4 -6 4 -12
-1 -12 -4 0 -8 -20 -8 -45 0 -25 4 -45 8 -45 5 0 5 -6 1 -12 -11 -18 -12 -48
-2 -48 5 0 6 -6 2 -12 -12 -19 -12 -48 -1 -48 5 0 5 -6 -2 -13 -8 -10 -7 -17
1 -25 7 -7 8 -12 2 -12 -12 0 -12 -29 0 -48 4 -6 4 -12 -1 -12 -4 0 -8 -20 -8
-45 0 -25 4 -45 8 -45 5 0 5 -6 1 -12 -11 -18 -12 -48 -2 -48 5 0 6 -6 2 -12
-12 -19 -12 -48 -1 -48 5 0 5 -6 -2 -13 -8 -10 -7 -17 1 -25 7 -7 8 -12 2 -12
-12 0 -12 -29 0 -48 4 -6 4 -12 -1 -12 -10 0 -9 -91 1 -108 4 -7 3 -12 -2 -12
-10 0 -10 -30 1 -46 3 -6 3 -14 0 -18 -10 -10 -11 -46 -1 -46 5 0 6 -6 2 -12
-11 -18 -12 -48 -2 -48 5 0 6 -6 1 -12 -10 -18 -10 -42 1 -50 6 -4 5 -12 -3
-21 -8 -11 -9 -17 -1 -22 8 -5 8 -10 0 -20 -8 -10 -8 -15 0 -20 8 -5 8 -10 0
-20 -8 -9 -8 -15 0 -20 6 -3 7 -12 3 -18 -9 -15 -10 -75 -1 -89 3 -7 3 -19 -2
-28 -5 -9 -5 -22 0 -30 5 -8 5 -21 0 -30 -5 -9 -5 -22 0 -30 5 -8 5 -21 0 -30
-5 -9 -5 -22 0 -29 4 -8 4 -26 0 -42 -6 -19 -4 -29 3 -32 9 -3 9 -8 -1 -19 -9
-12 -10 -18 -2 -23 8 -5 8 -10 0 -20 -8 -10 -8 -15 0 -20 8 -5 8 -10 0 -20 -8
-9 -8 -15 0 -20 6 -3 7 -12 3 -18 -10 -17 -10 -80 1 -94 5 -8 5 -13 -1 -13
-11 0 -11 -29 0 -46 3 -6 3 -14 0 -18 -10 -10 -11 -46 -1 -46 5 0 6 -6 2 -12
-11 -18 -12 -48 -2 -48 5 0 6 -6 2 -12 -11 -18 -12 -48 -2 -48 5 0 6 -6 2 -12
-11 -18 -12 -48 -2 -48 5 0 6 -6 2 -12 -11 -18 -12 -48 -2 -48 5 0 6 -6 2 -12
-12 -19 -12 -48 -1 -48 5 0 5 -6 -2 -13 -8 -10 -7 -17 1 -25 7 -7 8 -12 2 -12
-12 0 -12 -29 0 -48 4 -6 4 -12 -1 -12 -4 0 -8 -20 -8 -45 0 -25 4 -45 8 -45
4 0 4 -7 -1 -16 -13 -23 -3 -54 14 -47 8 3 14 1 14 -4 0 -11 61 -10 79 1 7 5
16 5 20 0 3 -5 13 -8 21 -8 8 1 29 2 45 3 27 1 31 5 33 33 6 71 7 628 1 628
-3 0 -4 12 -2 28 6 52 8 212 2 212 -3 0 -4 12 -2 27 6 53 8 213 2 213 -3 0 -4
12 -2 27 6 53 8 213 2 213 -3 0 -4 12 -2 28 7 56 8 212 1 212 -3 0 -4 8 -2 18
7 26 10 1582 3 1582 -3 0 -4 12 -2 28 6 52 8 212 2 212 -3 0 -4 12 -2 28 6 52
8 212 2 212 -3 0 -4 12 -2 28 6 52 8 212 2 212 -3 0 -4 12 -2 28 6 48 8 212 3
212 -3 0 -3 49 0 110 3 61 2 110 -2 110 -5 0 -8 6 -8 13 0 8 -11 19 -25 25
-32 15 -112 16 -120 2z"/>
<path d="M3367 4930 c-11 -18 -17 -50 -17 -88 0 -53 4 -64 30 -92 16 -17 33
-29 38 -26 12 7 72 9 100 2 12 -2 22 0 22 5 0 6 5 7 10 4 6 -4 38 -8 73 -11
34 -3 71 -8 82 -11 11 -4 30 -6 43 -4 12 1 22 -3 22 -10 0 -9 4 -8 15 1 10 8
15 9 15 2 0 -6 7 -9 15 -6 8 4 15 1 15 -6 0 -6 4 -9 10 -5 20 12 343 -109 378
-142 7 -7 19 -13 25 -13 7 0 36 -16 65 -35 28 -20 52 -32 53 -28 0 5 5 -3 11
-17 6 -14 12 -20 15 -14 5 14 53 -27 177 -148 49 -49 92 -88 95 -88 3 -1 28
-32 56 -70 27 -39 53 -70 58 -70 5 0 7 -6 4 -13 -3 -7 4 -19 15 -26 11 -7 17
-15 14 -18 -3 -3 4 -17 14 -31 11 -13 20 -31 20 -38 0 -8 4 -14 8 -14 5 0 17
-18 27 -40 10 -22 22 -40 27 -40 4 0 8 -8 8 -19 0 -10 7 -24 15 -31 9 -7 14
-18 12 -24 -2 -6 3 -16 12 -23 12 -9 12 -12 3 -13 -10 0 -10 -4 2 -16 9 -8 16
-24 16 -35 0 -10 5 -19 11 -19 5 0 7 -4 4 -10 -3 -5 -1 -10 5 -10 6 0 9 -4 5
-9 -3 -5 0 -13 6 -16 5 -4 8 -13 5 -21 -3 -8 -1 -14 4 -14 6 0 9 -3 8 -7 -4
-11 32 -116 44 -130 7 -9 7 -13 0 -13 -7 0 -6 -10 3 -27 8 -15 12 -30 9 -35
-3 -4 -1 -8 3 -8 5 0 10 -16 11 -37 2 -20 6 -41 9 -47 6 -10 15 -60 16 -98 1
-10 5 -18 10 -18 4 0 6 -4 3 -8 -3 -5 -1 -37 4 -73 14 -100 20 -167 22 -256 2
-46 7 -83 11 -83 5 0 5 -5 2 -10 -4 -6 -9 -54 -11 -108 -5 -89 -11 -167 -14
-167 0 0 -3 -27 -6 -60 -4 -56 -10 -100 -14 -100 -1 0 -3 -16 -6 -35 -3 -31
-13 -77 -31 -160 -3 -14 -6 -33 -7 -42 0 -10 -3 -18 -6 -18 -4 0 -14 -36 -25
-81 -10 -44 -24 -83 -31 -86 -8 -3 -12 -9 -9 -14 3 -4 -1 -24 -9 -44 -8 -19
-12 -35 -9 -35 3 0 0 -6 -6 -13 -6 -8 -8 -17 -4 -20 3 -4 1 -7 -6 -7 -7 0 -10
-4 -6 -9 3 -5 1 -12 -5 -16 -5 -3 -10 -15 -10 -26 0 -10 -4 -19 -9 -19 -5 0
-12 -13 -16 -30 -4 -16 -11 -30 -16 -30 -6 0 -8 -4 -5 -8 5 -8 -38 -103 -45
-99 -2 1 -3 0 -2 -2 1 -2 -9 -23 -22 -46 -14 -23 -22 -45 -17 -50 4 -4 1 -5
-5 -1 -7 4 -13 3 -13 -1 0 -5 -28 -51 -61 -103 -34 -52 -61 -97 -61 -100 0 -3
-9 -10 -21 -17 -12 -6 -22 -15 -22 -20 0 -11 -57 -83 -101 -130 -17 -18 -30
-34 -29 -35 2 -2 -46 -43 -107 -93 -60 -49 -115 -95 -122 -102 -8 -7 -16 -9
-20 -6 -3 4 -6 1 -6 -6 0 -6 -11 -16 -25 -21 -14 -5 -25 -14 -25 -20 0 -5 -3
-9 -7 -8 -8 2 -75 -31 -83 -41 -11 -13 -109 -58 -104 -47 3 6 -2 2 -10 -8 -9
-11 -19 -17 -22 -13 -4 4 -13 2 -21 -4 -7 -6 -13 -8 -13 -3 0 5 -4 4 -8 -3 -4
-6 -19 -14 -32 -17 -30 -6 -90 -28 -107 -39 -8 -5 -13 -4 -13 3 0 8 -6 7 -21
-1 -27 -14 -165 -39 -190 -34 -10 2 -21 -1 -24 -6 -4 -5 -11 -6 -17 -3 -6 4
-9 1 -6 -7 5 -16 56 -31 64 -18 3 5 9 7 14 4 4 -3 41 -1 82 5 40 5 89 12 108
14 19 3 35 5 35 6 0 1 16 4 35 6 19 3 42 8 50 11 8 3 24 8 34 10 39 7 192 56
218 69 15 8 37 15 48 17 12 2 25 8 28 14 4 6 15 9 25 7 9 -1 17 2 17 6 0 9 40
25 53 22 4 -1 7 2 7 8 0 5 16 16 36 25 20 8 58 29 86 47 28 18 54 33 59 33 5
0 10 5 11 10 1 6 23 23 48 40 60 39 239 214 303 295 28 36 54 67 58 70 3 3 13
19 22 36 9 17 23 36 31 43 9 7 13 17 10 22 -3 5 0 9 5 9 6 0 24 27 41 60 17
33 34 60 39 60 5 0 8 6 8 13 -1 6 16 48 37 92 50 107 69 148 71 160 0 6 5 19
9 30 28 70 36 97 31 106 -4 5 -2 9 4 9 5 0 13 15 16 32 4 18 10 37 13 43 3 5
7 23 9 39 2 17 9 34 16 38 8 5 9 8 0 8 -8 0 -8 8 0 33 7 17 16 35 21 38 4 4 3
10 -3 13 -7 5 -8 13 -2 25 6 10 12 31 15 47 2 16 5 31 6 34 1 3 2 8 1 12 0 4
4 31 10 60 5 29 12 82 15 118 17 220 19 261 13 278 -4 10 -3 25 1 32 5 7 4 24
-1 37 -5 12 -5 23 -1 23 9 0 8 42 -1 57 -4 7 -3 14 3 18 6 4 8 11 4 16 -3 5
-7 40 -10 77 -2 37 -5 86 -6 109 -2 24 -7 43 -11 43 -5 0 -5 4 -2 10 3 5 -1
47 -10 92 -9 46 -18 98 -21 117 -2 18 -6 36 -9 40 -2 4 -7 23 -10 42 -3 18
-11 36 -17 40 -7 4 -6 8 3 12 9 4 11 8 4 14 -6 4 -10 15 -10 23 0 8 -3 18 -7
21 -4 3 -9 17 -10 32 -1 15 -7 27 -12 27 -5 0 -7 3 -3 6 3 4 -1 20 -9 36 -9
16 -13 36 -10 43 3 8 2 15 -2 17 -6 3 -50 98 -56 123 -1 6 -15 37 -31 70 -15
33 -28 66 -28 73 0 6 -6 12 -13 12 -7 0 -11 8 -10 18 2 9 -6 25 -16 34 -11 9
-19 20 -19 25 1 4 -10 25 -24 46 -14 22 -25 43 -25 48 0 5 -5 9 -11 9 -5 0 -8
4 -5 9 3 5 -1 12 -10 15 -8 3 -12 10 -9 16 3 5 3 10 -2 10 -4 0 -21 21 -38 48
-16 26 -41 57 -54 70 -13 12 -21 22 -18 22 4 0 -19 27 -51 60 -32 33 -56 62
-54 65 3 3 -3 5 -13 5 -10 0 -16 3 -12 6 3 4 -18 27 -48 52 -30 26 -55 50 -55
54 0 4 -7 8 -15 8 -7 0 -19 8 -24 18 -6 9 -11 13 -11 8 0 -5 -8 0 -17 11 -17
18 -142 107 -153 108 -8 1 -55 27 -60 34 -3 4 -24 15 -47 25 -24 11 -43 24
-43 29 0 6 -3 8 -6 4 -3 -3 -26 3 -50 13 -24 11 -44 16 -44 12 0 -4 -4 -1 -9
6 -4 7 -14 14 -22 15 -8 2 -18 5 -24 8 -5 3 -30 11 -55 18 -25 8 -52 16 -60
19 -8 3 -28 7 -45 9 -16 3 -32 8 -35 11 -3 4 -14 7 -25 8 -11 1 -36 4 -55 8
-19 4 -64 11 -99 17 -36 5 -67 11 -69 14 -3 2 -13 0 -23 -5 -12 -7 -20 -7 -24
0 -4 7 -50 10 -119 9 -112 -1 -113 -1 -129 -29z"/>
<path d="M588 4473 c-10 -3 -18 -9 -18 -14 0 -6 -4 -8 -9 -5 -13 8 -43 -30
-39 -51 2 -10 10 -25 18 -34 19 -21 80 -50 80 -39 0 5 13 5 30 0 21 -6 30 -5
30 3 0 8 3 8 12 -1 8 -8 15 -9 25 -1 8 8 13 8 13 1 0 -12 61 7 72 23 5 7 8 6
8 0 0 -6 9 -11 21 -12 12 -1 27 -10 35 -20 7 -10 14 -15 14 -10 0 15 130 -110
130 -126 0 -5 5 -5 10 -2 6 3 10 0 10 -8 0 -7 9 -23 21 -35 11 -12 17 -27 14
-32 -3 -6 1 -10 9 -10 9 0 15 -3 14 -7 -1 -5 4 -21 11 -37 6 -16 10 -35 7 -42
-3 -7 -1 -14 4 -16 5 -2 3 -11 -4 -20 -16 -22 -85 -31 -139 -18 -45 11 -55 14
-101 26 -16 4 -41 13 -55 20 -14 8 -34 14 -44 14 -10 0 -15 5 -12 10 3 6 0 10
-7 10 -14 0 -99 41 -108 51 -3 4 -15 9 -27 13 -13 4 -23 12 -23 17 0 6 -4 7
-10 4 -5 -3 -10 -1 -10 5 0 6 -4 9 -9 6 -5 -4 -11 -2 -13 3 -1 5 -12 3 -22 -5
-11 -8 -15 -14 -8 -14 6 0 9 -6 7 -12 -2 -7 19 -31 47 -53 27 -22 59 -48 69
-57 11 -10 19 -15 19 -10 0 4 4 3 8 -3 9 -12 39 -32 70 -45 13 -6 55 -30 93
-55 38 -25 72 -45 74 -45 12 0 97 -65 119 -90 13 -17 29 -30 34 -30 5 0 15
-15 22 -32 6 -18 16 -40 20 -50 6 -11 3 -23 -11 -39 -10 -12 -19 -18 -19 -12
0 6 -18 9 -40 7 -22 -1 -40 2 -40 7 0 6 -4 8 -9 5 -10 -7 -71 16 -71 26 0 4
-9 8 -20 8 -11 0 -20 5 -20 12 0 6 -3 9 -6 5 -8 -8 -144 63 -144 75 0 5 -3 7
-8 4 -7 -4 -60 18 -92 39 -25 16 -50 16 -50 0 0 -15 24 -41 74 -78 15 -12 42
-33 60 -47 30 -25 81 -60 101 -70 43 -22 105 -64 105 -72 0 -5 5 -6 10 -3 5 3
10 -1 10 -9 0 -9 7 -16 15 -16 8 0 38 -22 67 -50 28 -27 55 -50 60 -50 4 0 8
-6 8 -14 0 -7 7 -19 15 -26 8 -7 15 -21 15 -31 0 -11 4 -19 9 -19 5 0 11 -11
13 -25 3 -14 1 -25 -4 -25 -5 0 -7 -4 -4 -9 4 -5 -6 -23 -20 -40 -23 -28 -32
-31 -80 -31 -30 0 -69 6 -87 13 -18 7 -39 12 -47 12 -8 -1 -34 7 -57 17 -24 9
-43 15 -43 12 0 -2 -10 1 -22 8 -13 6 -30 13 -39 15 -10 1 -52 21 -95 43 -44
22 -83 40 -88 40 -5 0 -15 8 -23 18 -8 9 -12 12 -8 5 3 -7 -21 3 -55 22 -33
19 -60 32 -60 29 0 -3 -7 2 -16 10 -8 9 -15 28 -14 44 1 15 2 73 1 130 l-1
102 -30 0 -29 0 -3 -112 c-2 -66 -7 -113 -13 -115 -6 -2 -20 5 -30 14 -20 18
-89 53 -104 53 -5 0 -12 -7 -15 -16 -6 -17 27 -68 38 -57 3 3 6 -1 6 -10 0 -9
7 -17 15 -17 9 0 18 -7 21 -15 4 -8 10 -12 15 -9 5 3 9 -2 9 -10 0 -9 6 -16
13 -16 34 0 64 -72 35 -83 -10 -4 -10 -6 0 -6 9 -1 10 -6 2 -20 -7 -13 -7 -22
0 -26 7 -4 7 -13 0 -26 -7 -12 -7 -19 -1 -19 6 0 6 -12 0 -32 -5 -18 -9 -56
-9 -85 0 -28 -5 -55 -10 -58 -7 -4 -7 -12 -2 -18 7 -10 9 -32 2 -39 -1 -2 -4
-25 -6 -53 -2 -27 -7 -61 -10 -75 -6 -23 -10 -53 -19 -140 -2 -19 -4 -35 -5
-35 -2 0 -8 -43 -14 -95 -2 -19 -6 -42 -9 -50 -6 -16 -16 -73 -22 -130 -2 -19
-4 -37 -5 -40 -1 -3 -2 -13 -1 -22 1 -10 -3 -18 -9 -18 -6 0 -8 -4 -5 -10 5
-8 -1 -52 -19 -136 -2 -11 -5 -41 -7 -65 -1 -24 -5 -48 -8 -54 -3 -5 -6 -17
-8 -25 -11 -81 -15 -126 -18 -187 -2 -40 -6 -77 -10 -83 -3 -5 -4 -10 0 -10 3
0 1 -9 -5 -20 -8 -14 -8 -20 0 -20 8 0 8 -6 0 -20 -8 -15 -8 -20 1 -20 7 0 8
-4 2 -12 -11 -15 -11 -28 0 -45 4 -6 3 -14 -1 -17 -5 -3 -6 -25 -2 -50 4 -24
3 -52 -2 -60 -6 -10 -5 -16 2 -16 6 0 8 -5 4 -12 -9 -14 -10 -71 -1 -85 4 -6
4 -13 0 -16 -8 -9 -10 -77 -2 -77 4 0 9 -18 11 -40 2 -22 -1 -40 -5 -40 -5 0
-4 -7 3 -15 7 -8 10 -26 8 -40 -3 -13 -2 -26 2 -27 5 -2 10 -28 11 -58 2 -30
7 -57 11 -60 3 -3 8 -18 11 -35 7 -39 21 -81 43 -130 10 -22 17 -43 16 -47 -1
-5 3 -8 8 -8 6 0 10 -7 10 -15 0 -8 4 -15 10 -15 5 0 9 -4 7 -9 -3 -13 105
-140 121 -140 6 -1 12 -5 12 -9 0 -5 7 -17 16 -28 8 -10 12 -12 8 -5 -5 9 4 7
22 -6 33 -23 97 -51 129 -56 11 -1 25 -5 30 -9 17 -10 136 -1 195 15 57 15 70
20 70 27 0 7 33 21 55 24 6 1 15 6 20 13 6 6 32 30 58 52 27 23 46 41 44 41
-3 0 10 17 29 37 19 20 32 39 29 41 -2 2 1 10 8 18 23 26 32 39 33 49 0 6 6
24 13 40 7 17 14 38 16 48 2 9 6 21 9 25 7 12 16 59 23 129 l6 61 -39 0 c-22
0 -33 -3 -26 -5 6 -3 9 -10 5 -16 -4 -6 -7 -20 -8 -31 -5 -65 -19 -136 -26
-136 -5 0 -9 -9 -9 -19 0 -11 -4 -22 -10 -26 -5 -3 -7 -12 -3 -20 3 -8 0 -15
-6 -15 -6 0 -11 -7 -11 -15 0 -8 -3 -15 -8 -15 -4 0 -13 -13 -20 -29 -15 -34
-132 -164 -140 -156 -3 3 -15 -3 -26 -14 -12 -11 -30 -21 -41 -23 -11 -1 -23
-6 -26 -11 -7 -10 -43 -18 -99 -22 -25 -2 -45 -4 -45 -5 0 -1 -10 -3 -22 -4
-13 -2 -23 0 -23 3 0 3 -12 6 -27 6 -49 1 -126 48 -198 120 -39 39 -76 81 -83
94 -8 13 -23 39 -33 58 -11 19 -17 38 -14 44 4 5 1 9 -5 9 -6 0 -9 4 -6 9 4 5
1 11 -4 13 -6 2 -12 17 -13 33 -1 17 -6 33 -10 36 -5 3 -10 24 -12 45 -1 21
-6 47 -10 56 -4 9 -4 22 0 28 3 5 2 10 -2 10 -5 0 -9 8 -10 18 -8 118 -18 194
-25 198 -4 3 -3 14 2 25 8 13 7 19 0 19 -6 0 -8 5 -4 12 11 18 12 48 2 48 -5
0 -6 5 -3 11 11 17 13 59 3 59 -5 0 -6 6 -2 12 11 18 12 48 2 48 -5 0 -4 9 2
19 6 13 7 22 0 26 -6 4 -6 15 0 31 7 17 7 23 0 19 -6 -4 -7 2 -2 17 8 20 14
89 16 171 1 15 5 27 11 27 5 0 4 5 -3 12 -8 8 -8 16 0 32 6 12 11 36 9 54 -1
18 2 38 6 45 4 6 8 27 9 47 6 81 12 121 18 127 3 3 6 23 6 43 0 20 3 40 6 43
4 4 8 25 11 49 2 23 6 53 9 67 9 40 24 133 26 164 1 15 4 27 7 27 3 0 7 15 8
33 2 43 11 95 18 107 3 6 1 10 -5 10 -7 0 -5 7 4 16 18 18 21 28 5 18 -8 -5
-8 -1 0 13 7 14 7 23 -1 31 -8 8 -8 12 -1 12 6 0 10 15 10 33 -1 18 2 38 7 45
4 7 5 12 2 12 -2 0 -1 14 4 30 5 19 5 30 -1 30 -6 0 -6 7 1 19 5 11 10 42 10
70 0 27 5 53 10 56 7 5 8 11 1 19 -6 7 -6 17 -1 26 6 9 5 17 -2 21 -6 4 -7 12
-2 20 11 18 11 38 2 65 -4 13 -1 29 6 39 11 16 15 15 50 -4 76 -43 161 -85
169 -83 4 1 7 -2 7 -6 0 -5 18 -15 40 -22 22 -7 40 -17 40 -21 0 -5 16 -11 35
-15 19 -3 38 -10 41 -15 3 -5 9 -7 14 -4 5 3 11 1 15 -5 3 -5 13 -10 21 -10 8
0 33 -12 57 -27 72 -47 81 -52 100 -59 9 -3 17 -11 18 -18 0 -6 21 -28 45 -48
25 -21 42 -38 38 -38 -4 0 2 -8 13 -18 22 -19 37 -71 25 -88 -11 -16 -42 -25
-42 -13 0 6 -7 8 -16 5 -18 -7 -124 23 -124 36 0 4 -6 5 -14 2 -8 -3 -17 0
-21 5 -3 6 -11 9 -16 6 -5 -4 -9 -1 -9 4 0 6 -7 11 -15 11 -8 0 -15 4 -15 10
0 5 -3 9 -7 8 -15 -4 -82 26 -77 34 3 4 -2 8 -10 8 -9 0 -16 4 -16 10 0 5 -3
9 -7 8 -14 -3 -63 21 -84 41 -12 11 -27 17 -33 15 -21 -8 -14 -34 13 -57 28
-24 40 -57 21 -57 -16 0 -54 -32 -59 -50 -26 -96 -28 -107 -19 -133 6 -15 7
-34 4 -42 -3 -8 -1 -15 5 -15 6 0 7 -5 4 -10 -4 -6 -2 -16 3 -23 6 -7 12 -21
14 -32 1 -11 12 -28 22 -38 11 -9 16 -20 13 -23 -3 -4 -1 -12 6 -19 31 -32 57
-66 57 -74 0 -5 9 -13 20 -16 11 -4 18 -9 16 -13 -2 -4 14 -18 35 -32 21 -13
39 -28 39 -32 0 -4 5 -8 11 -8 6 0 17 -6 24 -12 27 -24 40 -33 68 -45 15 -7
27 -17 27 -23 0 -6 4 -9 9 -6 4 3 16 -3 26 -14 10 -11 24 -20 32 -20 7 0 13
-4 13 -9 0 -5 15 -25 33 -44 47 -50 67 -76 67 -87 0 -6 5 -10 11 -10 6 0 9 -7
5 -15 -3 -8 -1 -15 3 -15 12 0 32 -60 25 -71 -3 -5 -1 -9 4 -9 6 0 12 -25 14
-55 1 -30 0 -55 -4 -55 -5 0 -8 -9 -8 -20 0 -11 -5 -20 -11 -20 -5 0 -7 -5 -4
-10 3 -6 -1 -10 -10 -10 -9 0 -13 -5 -10 -10 4 -6 3 -10 -2 -9 -8 2 -23 -3
-70 -22 -14 -5 -23 -5 -23 1 0 5 -9 7 -20 5 -23 -4 -30 5 -40 51 -5 23 -4 34
4 34 6 0 5 4 -3 9 -8 5 -11 16 -8 25 4 9 3 16 -2 16 -5 0 -14 20 -20 45 -6 25
-16 45 -22 45 -5 0 -7 5 -4 11 13 20 -141 220 -157 203 -3 -2 -21 3 -41 11
-25 10 -37 12 -37 4 0 -8 -4 -8 -13 -1 -7 6 -18 7 -26 2 -8 -4 -20 -6 -26 -4
-15 6 -78 -64 -70 -77 4 -5 1 -9 -5 -9 -7 0 -9 -14 -6 -37 8 -65 18 -103 27
-103 5 0 9 -6 9 -13 0 -19 66 -118 73 -110 4 3 7 -1 7 -9 0 -20 127 -135 152
-138 9 -1 137 -83 158 -102 8 -7 28 -19 43 -25 15 -7 27 -17 27 -23 0 -6 4 -8
10 -5 5 3 10 2 10 -3 0 -5 11 -15 25 -22 13 -7 22 -17 19 -22 -3 -4 3 -8 12
-8 10 0 15 -3 11 -6 -3 -4 3 -14 13 -23 11 -9 21 -26 23 -38 2 -11 9 -28 16
-37 9 -11 10 -16 2 -16 -6 0 -11 -6 -11 -14 0 -29 -54 -34 -115 -10 -22 8 -48
17 -57 21 -10 3 -18 9 -18 14 0 5 -8 9 -17 10 -10 0 -31 9 -48 20 -40 26 -109
57 -131 60 -28 4 -70 -20 -84 -47 -7 -13 -16 -21 -20 -19 -4 3 -10 -3 -12 -13
-3 -10 -21 -23 -42 -29 -24 -7 -34 -8 -30 -1 4 6 1 9 -6 6 -26 -8 -18 -36 16
-54 19 -10 34 -22 34 -26 0 -5 9 -8 19 -8 10 0 21 -7 25 -15 3 -8 13 -15 21
-15 9 0 13 -4 10 -10 -3 -5 2 -10 13 -10 10 0 28 -9 39 -19 12 -11 24 -17 27
-14 3 4 6 0 6 -7 0 -7 3 -10 7 -7 3 4 17 -2 29 -14 l22 -21 11 20 c14 26 14
35 1 27 -6 -3 -10 -2 -10 4 0 6 -19 20 -42 32 -96 48 -162 99 -128 99 6 0 10
6 10 13 0 13 35 39 58 43 6 1 12 -2 12 -7 0 -6 4 -8 9 -4 5 3 12 1 16 -5 4 -6
10 -8 15 -5 4 3 10 -1 13 -8 3 -7 41 -31 86 -52 45 -22 81 -42 81 -45 0 -3 14
-6 31 -7 17 -1 37 -7 44 -13 6 -5 14 -7 18 -4 3 3 18 7 34 8 45 5 56 10 78 36
21 26 47 90 36 90 -3 0 -7 17 -8 37 -1 21 -7 39 -13 41 -5 2 -10 8 -10 14 0
15 -47 68 -54 61 -3 -4 -6 0 -6 8 0 8 -18 25 -40 39 -22 14 -40 28 -40 31 0 4
-9 9 -21 12 -12 3 -18 10 -15 15 6 11 95 37 111 33 6 -2 7 1 3 5 -4 3 8 19 27
34 19 15 32 30 28 33 -3 3 2 13 11 22 9 9 17 25 17 36 1 18 4 29 9 47 6 19 4
49 -3 66 -7 14 -6 16 4 11 8 -6 10 -4 5 4 -5 7 -10 27 -13 44 -3 18 -9 34 -14
35 -5 2 -6 8 -3 13 3 6 -1 18 -9 27 -9 9 -17 23 -19 31 -3 17 -37 59 -89 113
-20 21 -34 38 -30 38 3 0 -1 4 -9 10 -20 12 -12 17 35 22 22 1 47 11 56 20 9
10 19 15 23 11 3 -3 6 -2 6 3 0 6 9 20 21 33 27 28 34 126 14 175 -8 18 -11
36 -8 40 4 3 2 6 -4 6 -5 0 -18 16 -29 35 -10 19 -24 35 -31 35 -7 0 -13 5
-13 10 0 6 -12 22 -26 35 -15 14 -23 25 -18 25 5 0 3 4 -5 9 -11 7 -4 12 25
20 22 6 51 22 63 35 20 21 23 32 18 68 -9 65 -12 75 -26 92 -7 9 -10 16 -7 16
4 0 -5 12 -19 27 -14 15 -25 31 -25 35 0 5 -7 8 -17 8 -9 0 -13 3 -10 7 4 3
-8 17 -25 30 -52 38 -54 51 -8 51 45 1 105 26 124 53 7 10 16 16 19 12 6 -5 9
12 6 33 0 4 4 10 10 14 13 8 21 80 9 80 -4 0 -8 11 -8 24 0 14 -5 28 -10 31
-6 4 -8 11 -5 16 4 5 1 9 -5 9 -6 0 -9 4 -6 8 2 4 -9 23 -25 41 -16 19 -29 38
-29 43 0 5 -4 6 -10 3 -5 -3 -10 2 -10 11 0 10 -3 15 -6 12 -5 -6 -44 27 -44
37 0 3 9 5 20 5 11 0 36 6 54 14 41 17 61 67 51 126 -4 22 -6 42 -6 45 1 3
-10 16 -24 30 -15 13 -26 27 -25 30 2 8 -25 39 -69 77 -17 15 -31 29 -31 32 0
2 20 6 45 8 40 5 120 46 110 57 -2 2 2 16 10 31 8 15 12 30 8 33 -3 3 -7 25
-8 48 -2 23 -8 45 -12 48 -5 3 -15 20 -21 36 -7 17 -44 66 -82 110 -38 44 -70
83 -70 88 0 4 -7 7 -15 7 -8 0 -15 5 -15 10 0 6 -6 10 -14 10 -8 0 -16 6 -19
14 -3 7 -26 23 -51 36 -25 12 -46 25 -46 29 0 4 -6 8 -12 9 -33 3 -144 38
-150 47 -5 6 -8 5 -8 -3 0 -9 -5 -10 -17 -4 -10 5 -26 7 -35 5z m96 -1633 c4
1 17 -1 29 -5 12 -4 24 -8 27 -9 3 -1 12 -6 20 -11 8 -6 23 -14 32 -20 108
-64 207 -137 236 -173 6 -9 12 -13 12 -9 0 5 6 2 14 -5 8 -7 12 -16 9 -20 -2
-5 3 -8 12 -8 9 0 13 -4 10 -10 -3 -5 -1 -10 5 -10 6 0 8 -4 5 -10 -3 -5 -1
-10 5 -10 6 0 9 -4 6 -9 -3 -5 1 -12 10 -15 10 -4 14 -14 11 -26 -3 -10 1 -24
9 -31 8 -6 11 -15 8 -20 -3 -5 -8 -22 -10 -37 -7 -38 -25 -53 -73 -59 -46 -6
-151 14 -151 29 0 5 -4 7 -9 4 -5 -4 -11 -2 -13 4 -2 6 -13 12 -25 14 -26 5
-49 23 -135 105 -37 36 -65 69 -62 73 3 4 0 8 -6 8 -14 0 -63 107 -55 120 3 5
2 10 -3 10 -5 0 -8 20 -7 45 1 37 7 50 35 75 22 19 36 26 40 19 4 -6 10 -10
14 -9z m-5 -741 c73 -34 213 -194 203 -231 -1 -5 3 -8 10 -8 6 0 8 -3 5 -6 -3
-4 -2 -15 4 -25 7 -14 6 -19 -3 -20 -10 0 -10 -2 0 -6 6 -2 12 -16 12 -30 0
-19 -4 -24 -16 -19 -9 3 -27 9 -40 12 -13 3 -24 10 -24 16 0 5 -4 6 -10 3 -5
-3 -10 -1 -10 4 0 6 -5 11 -10 11 -17 0 -110 64 -110 76 0 7 -6 14 -14 17 -22
9 -106 124 -106 146 0 12 -5 21 -10 21 -6 0 -5 11 4 28 18 35 55 39 115 11z"/>
<path d="M353 3948 c-4 -7 -8 -17 -9 -23 -1 -5 -3 -16 -5 -24 -6 -21 59 -61
97 -61 44 0 57 23 37 66 -23 47 -99 74 -120 42z"/>
</g>
</svg>
